Coordinates
version=1
nRows=8
nColumns=28
inDegrees=yes

Units are S.I. units (second, meters, Newtons, ...)
If the header above contains a line with 'inDegrees', this indicates whether rotational values are in degrees (yes) or radians (no).

endheader
time	pelvis_tilt	pelvis_list	pelvis_rotation	pelvis_tx	pelvis_ty	pelvis_tz	hip_flexion_r	hip_adduction_r	hip_rotation_r	knee_angle_r	knee_rotation_r	knee_adduction_r	ankle_angle_r	subtalar_angle_r	mtp_angle_r	hip_flexion_l	hip_adduction_l	hip_rotation_l	knee_angle_l	knee_rotation_l	knee_adduction_l	ankle_angle_l	subtalar_angle_l	mtp_angle_l	lumbar_extension	lumbar_bending	lumbar_rotation
      0.00000000	     -4.59668729	      9.69809399	    -86.09277544	     -0.19736990	      0.95488586	     -0.75354029	      9.76990942	      6.14557504	     21.28558491	    -15.46372943	    -11.48045052	      6.17932368	     13.38801027	    -10.67722955	      0.85196073	     39.39275616	     -3.21331039	      8.02134346	    -16.34265228	      7.07262210	     -0.96669787	     17.28577394	      5.59590182	      0.11428667	      0.00000000	      0.00000000	      0.00000000
      0.01000000	     -4.39540949	      9.78549316	    -86.24313720	     -0.19624577	      0.95417969	     -0.74204082	      9.13838669	      5.58306937	     20.74988619	    -15.54142829	    -11.49766178	      6.62225032	     14.34175496	     -9.40049781	      1.20935672	     38.17277622	     -2.85824711	      9.17220081	    -11.49598021	      7.89945542	     -0.82740206	     16.37898825	      5.64973963	      0.50582086	      0.00000000	      0.00000000	      0.00000000
      0.02000000	     -3.97290211	     10.28060502	    -86.83972027	     -0.19597329	      0.95278529	     -0.73018487	      9.04802239	      4.91204123	     20.64877880	    -15.86451262	    -11.13694910	      7.11641792	     14.81353627	     -9.34570868	      1.41171556	     37.26942877	     -2.74624248	     10.29800093	     -6.91853626	      9.23751964	     -0.88966116	     15.24020295	      5.94648001	      0.61034636	      0.00000000	      0.00000000	      0.00000000
      0.03000000	     -3.81292396	     10.06529612	    -87.25851075	     -0.19550332	      0.95207448	     -0.71843618	      8.04298372	      4.52842536	     20.37787912	    -15.79642745	    -10.85986645	      7.38878433	     15.49531988	     -8.33180093	      1.87818177	     35.96078599	     -2.93046470	     11.75275819	     -3.23285557	     11.01103327	     -1.16269716	     14.72531185	      6.29839928	      0.72276995	      0.00000000	      0.00000000	      0.00000000
      0.04000000	     -3.75552017	     10.15677405	    -87.99235102	     -0.19579012	      0.95064061	     -0.70731258	      7.69362442	      4.44669789	     20.40330954	    -16.30916975	    -10.64217693	      7.58270633	     16.13576971	     -7.55337923	      2.28970021	     35.63144268	     -3.27809957	     12.06735967	     -1.21702732	     12.70939659	     -1.29067644	     14.91594598	      8.14887059	      0.60566086	      0.00000000	      0.00000000	      0.00000000
      0.05000000	     -3.68995818	     10.15392231	    -88.47094792	     -0.19607496	      0.94938759	     -0.69545256	      6.88586535	      4.39142474	     20.50755642	    -16.21485601	     -9.96958104	      7.62496185	     16.42769412	     -8.05368970	      2.56487468	     35.68601529	     -3.32225489	     11.51252747	     -0.67388486	     13.38447047	     -1.26891349	     15.71166123	     10.31100628	      0.49958301	      0.00000000	      0.00000000	      0.00000000
      0.06000000	     -3.73001363	     10.10789268	    -88.90845882	     -0.19618168	      0.94806492	     -0.68397296	      6.29906863	      4.44511797	     20.64713950	    -16.60249464	    -10.01573433	      7.69972219	     16.76771725	     -7.48600878	      2.76460383	     36.06217296	     -3.36661991	     10.98992184	     -1.19816235	     13.20175452	     -1.33248430	     16.21187978	     11.27664079	      0.62570739	      0.00000000	      0.00000000	      0.00000000
      0.07000000	     -3.94099797	     10.10994314	    -89.25382399	     -0.19624805	      0.94645609	     -0.67283629	      5.82122249	      4.74755201	     20.79865625	    -17.05462249	     -9.90348088	      7.72404935	     16.87068385	     -7.70004599	      3.05141686	     36.81764071	     -3.51764875	     10.50761367	     -2.66623005	     12.07501831	     -1.56091427	     16.40198254	     11.00935512	      0.80741119	      0.00000000	      0.00000000	      0.00000000
